HIERARCHY
ROOT Hips
{
	OFFSET 0.000000 0.000000 0.000000
	CHANNELS 6 Xposition Yposition Zposition Xrotation Yrotation Zrotation
	JOINT LeftUpLeg_virtual
	{
		OFFSET 0.000000 0.000000 0.000000
		CHANNELS 3 Xrotation Yrotation Zrotation
		JOINT LeftUpLeg
		{
			OFFSET 15.427100 -6.655098 0.678600
			CHANNELS 3 Xrotation Yrotation Zrotation
			JOINT LeftLeg
			{
				OFFSET 4.081073 -39.591068 13.024000
				CHANNELS 3 Xrotation Yrotation Zrotation
				JOINT LeftFoot
				{
					OFFSET -4.081074 -37.707932 -15.979700
					CHANNELS 3 Xrotation Yrotation Zrotation
					JOINT LeftToeBase
					{
						OFFSET 5.346399 -15.068900 20.645000
						CHANNELS 3 Xrotation Yrotation Zrotation
						JOINT LeftToe_End
						{
							OFFSET 2.754700 0.931300 11.300900
							CHANNELS 3 Xrotation Yrotation Zrotation
							End Site
							{
								OFFSET 0 0 0
							}
						}
					}
				}
			}
		}
	}
	JOINT RightUpLeg_virtual
	{
		OFFSET 0.000000 0.000000 0.000000
		CHANNELS 3 Xrotation Yrotation Zrotation
		JOINT RightUpLeg
		{
			OFFSET -15.569500 -6.655098 0.678600
			CHANNELS 3 Xrotation Yrotation Zrotation
			JOINT RightLeg
			{
				OFFSET -4.081825 -39.591045 13.023800
				CHANNELS 3 Xrotation Yrotation Zrotation
				JOINT RightFoot
				{
					OFFSET 4.081824 -37.707954 -15.979600
					CHANNELS 3 Xrotation Yrotation Zrotation
					JOINT RightToeBase
					{
						OFFSET -5.346400 -15.068900 20.645000
						CHANNELS 3 Xrotation Yrotation Zrotation
						JOINT RightToe_End
						{
							OFFSET -2.754700 0.931300 11.300900
							CHANNELS 3 Xrotation Yrotation Zrotation
							End Site
							{
								OFFSET 0 0 0
							}
						}
					}
				}
			}
		}
	}
	JOINT Spine_virtual
	{
		OFFSET 0.000000 0.000000 0.000000
		CHANNELS 3 Xrotation Yrotation Zrotation
		JOINT Spine
		{
			OFFSET -0.279200 12.230698 -2.892100
			CHANNELS 3 Xrotation Yrotation Zrotation
			JOINT Spine1
			{
				OFFSET -0.232667 10.192268 -1.242267
				CHANNELS 3 Xrotation Yrotation Zrotation
				JOINT Spine1_split
				{
					OFFSET -0.232667 10.192268 -1.242267
					CHANNELS 3 Xrotation Yrotation Zrotation
					JOINT Spine2
					{
						OFFSET -0.232667 10.192268 -1.242267
						CHANNELS 3 Xrotation Yrotation Zrotation
						JOINT Neck_virtual
						{
							OFFSET 0.000000 0.000000 0.000000
							CHANNELS 3 Xrotation Yrotation Zrotation
							JOINT Neck
							{
								OFFSET -0.418800 17.814194 8.416900
								CHANNELS 3 Xrotation Yrotation Zrotation
								JOINT Head
								{
									OFFSET 0.000000 7.031097 3.806800
									CHANNELS 3 Xrotation Yrotation Zrotation
									JOINT HeadTop_End
									{
										OFFSET 0.000000 24.646606 12.978600
										CHANNELS 3 Xrotation Yrotation Zrotation
										End Site
										{
											OFFSET 0 0 0
										}
									}
								}
							}
						}
						JOINT LeftShoulder_virtual
						{
							OFFSET 0.000000 0.000000 0.000000
							CHANNELS 3 Xrotation Yrotation Zrotation
							JOINT LeftShoulder
							{
								OFFSET 8.476499 7.247704 -3.868750
								CHANNELS 3 Xrotation Yrotation Zrotation
								JOINT LeftShoulder_split
								{
									OFFSET 8.476499 7.247704 -3.868750
									CHANNELS 3 Xrotation Yrotation Zrotation
									JOINT LeftArm
									{
										OFFSET 9.308998 -2.777710 0.208600
										CHANNELS 3 Xrotation Yrotation Zrotation
										JOINT LeftForeArm
										{
											OFFSET 29.972298 0.000000 0.000000
											CHANNELS 3 Xrotation Yrotation Zrotation
											JOINT LeftHand
											{
												OFFSET 26.026505 0.000000 0.000000
												CHANNELS 3 Xrotation Yrotation Zrotation
												End Site
												{
													OFFSET 0 0 0
												}
											}
										}
									}
								}
							}
						}
						JOINT RightShoulder_virtual
						{
							OFFSET 0.000000 0.000000 0.000000
							CHANNELS 3 Xrotation Yrotation Zrotation
							JOINT RightShoulder
							{
								OFFSET -7.570500 7.247704 -3.868750
								CHANNELS 3 Xrotation Yrotation Zrotation
								JOINT RightShoulder_split
								{
									OFFSET -7.570500 7.247704 -3.868750
									CHANNELS 3 Xrotation Yrotation Zrotation
									JOINT RightArm
									{
										OFFSET -9.308998 -2.777710 0.208500
										CHANNELS 3 Xrotation Yrotation Zrotation
										JOINT RightForeArm
										{
											OFFSET -29.972300 0.000000 0.000000
											CHANNELS 3 Xrotation Yrotation Zrotation
											JOINT RightHand
											{
												OFFSET -26.026505 0.000000 0.000000
												CHANNELS 3 Xrotation Yrotation Zrotation
												End Site
												{
													OFFSET 0 0 0
												}
											}
										}
									}
								}
							}
						}
					}
				}
			}
		}
	}
}
MOTION
Frames: 4
Frame Time: 0.03333333
2.190654 79.489006 -9.801655 0.000000 0.000000 0.000000 19.797705 -31.504446 15.892862 -55.851263 17.437432 32.216571 32.580296 -14.287488 -3.657741 6.545159 -2.079327 -4.855774 13.985476 -2.443314 5.557898 0.000000 0.000000 0.000000 17.560628 -30.565213 15.206178 -26.202563 11.095817 -28.214014 32.299340 15.419804 -7.323773 -10.195120 -16.261857 35.645845 -10.311818 6.106355 -10.022247 0.000000 0.000000 0.000000 13.811167 -14.760638 8.332922 13.900651 -1.730535 6.453141 4.114587 5.515788 -8.666316 0.007870 0.387205 -0.044238 0.000000 0.000000 0.000000 -5.542368 7.175951 -6.405867 -75.874550 18.453440 23.020430 -106.616200 -19.166761 -36.561760 0.000000 0.000000 0.000000 -5.434231 5.004613 -7.678242 2.631137 12.568993 20.531941 -17.315225 10.545985 -12.555087 10.788823 18.975517 -58.128878 83.656123 -65.515892 74.021533 0.000000 0.000000 0.000000 -5.943501 5.106534 -5.369187 2.903915 3.310087 12.291090 18.561787 13.325689 24.617474 47.358933 -7.875646 23.932802 -101.922467 61.760217 105.397680 0.000000 0.000000 0.000000 
1.341718 79.306770 -8.934044 0.000000 0.000000 0.000000 20.474455 -31.852000 16.616243 -56.325097 18.127349 32.274874 32.095213 -14.290937 -3.623331 5.530139 -1.963586 -4.863927 13.488656 -2.518212 5.809656 0.000000 0.000000 0.000000 18.894374 -30.486447 16.044145 -25.146315 12.196194 -27.538850 31.572508 15.337914 -8.043355 -10.878427 -16.437050 36.664780 -10.970354 6.160706 -10.184300 0.000000 0.000000 0.000000 15.276755 -15.402920 10.074916 14.393358 -2.539095 6.439301 4.024137 4.516037 -8.319926 0.097851 0.128367 0.100013 0.000000 0.000000 0.000000 -5.499419 6.557772 -6.000003 -74.712530 20.493829 23.181918 -106.932936 -19.001532 -36.495005 0.000000 0.000000 0.000000 -5.094454 4.068036 -7.435526 2.881030 11.614242 20.394530 -15.098871 5.505027 -13.067675 12.703973 22.169133 -57.070899 70.156425 -62.936785 60.206171 0.000000 0.000000 0.000000 -5.836886 4.343943 -4.995405 3.279248 3.806030 14.024324 15.133263 8.948978 22.776789 44.688067 -10.231623 28.148654 -111.942033 60.205228 114.491176 0.000000 0.000000 0.000000 
-0.041258 78.860535 -8.213264 0.000000 0.000000 0.000000 20.732641 -31.242795 17.503736 -57.071063 18.688955 32.409763 31.665693 -14.932872 -3.344796 5.154377 -1.939793 -6.338740 13.061215 -2.656511 6.076453 0.000000 0.000000 0.000000 19.727198 -29.301887 16.901860 -23.580897 12.171441 -27.136174 31.692696 15.112091 -8.804591 -14.448574 -17.706598 36.729424 -9.521624 6.519355 -11.199318 0.000000 0.000000 0.000000 16.591894 -15.846768 12.375925 16.104334 -3.765828 6.371147 4.521705 2.610980 -7.753831 0.151310 0.089497 0.312150 0.000000 0.000000 0.000000 -5.269182 5.146795 -5.551746 -71.216832 22.978300 23.340732 -107.778158 -17.724561 -35.314212 0.000000 0.000000 0.000000 -4.506233 2.326096 -7.231639 3.519090 9.230023 20.274646 -11.035486 -0.131584 -11.914761 14.495828 28.748516 -56.681134 59.742729 -59.545193 49.100618 0.000000 0.000000 0.000000 -4.976676 2.760083 -4.614162 3.739641 3.477903 16.347156 13.579371 3.202068 19.766658 38.715192 -10.284812 29.870241 -127.263022 54.730449 129.461045 0.000000 0.000000 0.000000 
-1.598060 78.157455 -7.596710 0.000000 0.000000 0.000000 20.547852 -29.843607 18.356543 -57.641558 19.455242 32.487286 31.271014 -15.673751 -2.966713 5.416162 -1.711526 -8.235546 12.551396 -2.877357 6.428711 0.000000 0.000000 0.000000 19.573449 -27.744490 17.582230 -22.119665 11.003667 -27.419514 33.332047 14.842151 -9.369036 -19.328401 -19.528986 36.537069 -6.775289 7.110531 -12.873926 0.000000 0.000000 0.000000 17.791374 -16.130308 14.713131 19.064970 -5.282653 6.240305 5.782094 0.080857 -6.915647 0.037831 0.061521 0.457985 0.000000 0.000000 0.000000 -4.557789 3.101050 -5.070465 -65.930136 25.726398 23.496604 -108.942323 -15.813003 -33.584351 0.000000 0.000000 0.000000 -3.428090 -0.024443 -6.883416 4.665083 5.419937 20.310664 -6.431993 -3.127994 -10.226498 14.124821 37.003540 -55.597077 52.951649 -57.067392 41.423123 0.000000 0.000000 0.000000 -3.366240 0.597236 -4.048596 4.345733 3.070987 18.984728 12.257108 -2.478359 15.905357 31.481865 -7.557877 28.969841 -136.378455 48.432632 138.773338 0.000000 0.000000 0.000000 
